<svg width="286" height="102" viewBox="0 0 286 102" fill="none" xmlns="http://www.w3.org/2000/svg">
<g clip-path="url(#clip0_4036_1126)">
<path d="M0.5 56.7367H12.7067V60.1145H4.91904V63.8725H11.9547V67.2254H4.91904V71.7126H12.7938V75.0904H0.5V56.7305V56.7367Z" fill="black"/>
<path d="M15.7015 56.7363H19.7725L23.7813 62.8875C24.4961 63.9968 25.1922 65.1248 25.8572 66.284C26.5285 67.4432 27.0443 68.4839 27.411 69.4187H27.467C27.3675 68.2533 27.3116 67.0817 27.293 65.9101C27.2743 64.7322 27.2619 63.5668 27.2619 62.4013V56.7488H31.3329V75.1087H27.2619L23.0169 68.8454C22.3208 67.8171 21.6806 66.7639 21.0964 65.6982C20.5121 64.6325 20.0211 63.5044 19.6171 62.3203H19.5612C19.6606 63.5418 19.7166 64.7197 19.7352 65.8477C19.7539 66.9757 19.7663 68.1225 19.7663 69.2879V75.1149H15.6953V56.755L15.7015 56.7363Z" fill="black"/>
<path d="M44.5593 72.0365C45.4294 72.0365 46.1691 71.9617 46.7657 71.8059C47.3686 71.6501 47.872 71.4444 48.276 71.1952L49.1462 74.3736C48.7608 74.6041 48.1331 74.841 47.2691 75.0716C46.4052 75.3021 45.3486 75.4206 44.0869 75.4206C42.6512 75.4206 41.3336 75.1962 40.134 74.7475C38.9345 74.2988 37.9028 73.6631 37.0513 72.8404C36.1998 72.0178 35.5348 71.0144 35.0624 69.8366C34.5901 68.6587 34.3477 67.3437 34.3477 65.8854C34.3477 64.4271 34.5776 63.1682 35.0313 61.9965C35.485 60.8186 36.1376 59.8215 36.9767 58.9926C37.822 58.17 38.8475 57.5281 40.0595 57.0669C41.2714 56.6119 42.6326 56.3813 44.1429 56.3813C45.4232 56.3813 46.4612 56.506 47.2691 56.7428C48.0709 56.9859 48.7049 57.2351 49.171 57.4844L48.1828 60.7189C47.7353 60.4696 47.207 60.2453 46.5979 60.0458C45.9888 59.8527 45.3113 59.7529 44.5779 59.7529C43.801 59.7529 43.0739 59.8651 42.3964 60.0895C41.7189 60.3138 41.1285 60.6691 40.6251 61.1552C40.1216 61.6413 39.7238 62.2645 39.4317 63.0373C39.1396 63.8038 38.9967 64.7449 38.9967 65.848C38.9967 66.8763 39.1396 67.7799 39.4193 68.559C39.699 69.338 40.0905 69.9799 40.594 70.4972C41.0974 71.0144 41.6816 71.3946 42.3529 71.6501C43.0241 71.9056 43.7513 72.0303 44.5469 72.0303L44.5593 72.0365Z" fill="black"/>
<path d="M59.5817 56.3875C60.8994 56.3875 62.1176 56.6056 63.2425 57.0418C64.3675 57.4781 65.3371 58.1075 66.1512 58.924C66.9654 59.7404 67.5994 60.7437 68.0531 61.9278C68.5068 63.112 68.7368 64.4519 68.7368 65.9476C68.7368 67.4433 68.5006 68.7147 68.022 69.8801C67.5497 71.0455 66.8971 72.0426 66.0767 72.8653C65.25 73.6941 64.2742 74.3236 63.1431 74.7598C62.0119 75.1961 60.7813 75.4142 59.4636 75.4142C58.146 75.4142 56.9278 75.2023 55.8029 74.7723C54.6779 74.3423 53.7083 73.7253 52.8941 72.9214C52.0799 72.1174 51.446 71.1265 50.9923 69.9486C50.5386 68.7707 50.3086 67.4371 50.3086 65.9413C50.3086 64.4456 50.5386 63.168 51.0047 61.9902C51.4708 60.8123 52.1172 59.8089 52.9501 58.9738C53.7829 58.1387 54.7649 57.4968 55.9023 57.0481C57.0335 56.5994 58.2579 56.375 59.5755 56.375L59.5817 56.3875ZM54.9638 65.9476C54.9638 66.9759 55.0819 67.8795 55.3243 68.6586C55.5667 69.4376 55.9023 70.0795 56.325 70.5843C56.7538 71.0891 57.2386 71.4693 57.7917 71.7185C58.3449 71.9741 58.9416 72.0987 59.5817 72.0987C60.2219 72.0987 60.7875 71.9741 61.3407 71.7185C61.8938 71.4693 62.3724 71.0891 62.7764 70.5843C63.1804 70.0795 63.5036 69.4376 63.7335 68.6586C63.9635 67.8795 64.0816 66.9759 64.0816 65.9476C64.0816 64.9193 63.9573 63.9533 63.7211 63.1618C63.4787 62.3766 63.1431 61.7284 62.7204 61.2236C62.2916 60.7188 61.8068 60.3386 61.2536 60.0894C60.7005 59.8401 60.1038 59.7092 59.4636 59.7092C58.8235 59.7092 58.2579 59.8401 57.7047 60.1018C57.1516 60.3636 56.673 60.7562 56.269 61.2797C55.865 61.8032 55.5418 62.4576 55.3119 63.2304C55.0819 64.0094 54.9638 64.913 54.9638 65.9413V65.9476Z" fill="black"/>
<path d="M71.7578 56.7363H79.0234C80.0676 56.7363 80.9937 56.8859 81.8016 57.185C82.6034 57.4842 83.2747 57.9017 83.8092 58.4252C84.3437 58.9487 84.7415 59.5595 85.0149 60.2637C85.2884 60.9617 85.4189 61.7096 85.4189 62.5073C85.4189 63.305 85.307 63.9282 85.0833 64.5016C84.8595 65.0749 84.5736 65.5735 84.2256 66.0035C83.8775 66.4335 83.4984 66.7825 83.0944 67.0505C82.6904 67.3247 82.3113 67.5366 81.9632 67.6924L86.3512 75.0962H81.2671L78.0103 68.4839H76.1769V75.0962H71.7578V56.7363ZM76.1769 65.131H77.5131C78.52 65.131 79.3342 64.9254 79.9557 64.5203C80.5772 64.1152 80.888 63.4546 80.888 62.5385C80.888 61.7781 80.6332 61.1798 80.1297 60.7311C79.6263 60.2824 78.8991 60.0581 77.9482 60.0581H76.1769V65.131Z" fill="black"/>
<path d="M88.707 56.7367H100.914V60.1145H93.1261V63.8725H100.162V67.2254H93.1261V71.7126H101.001V75.0904H88.707V56.7305V56.7367Z" fill="black"/>
<path d="M197.325 56.7363V60.1765H192.328V75.0962H187.909V60.1765H183.023V56.7363H197.325Z" fill="black"/>
<path d="M203.919 56.7363V75.0962H199.5V56.7363H203.919Z" fill="black"/>
<path d="M217.145 72.0365C218.015 72.0365 218.755 71.9617 219.352 71.8059C219.955 71.6501 220.458 71.4444 220.862 71.1952L221.732 74.3736C221.347 74.6041 220.719 74.841 219.855 75.0716C218.991 75.3021 217.935 75.4206 216.673 75.4206C215.237 75.4206 213.92 75.1962 212.72 74.7475C211.52 74.2988 210.489 73.6631 209.637 72.8404C208.786 72.0178 208.121 71.0144 207.648 69.8366C207.176 68.6587 206.934 67.3437 206.934 65.8854C206.934 64.4271 207.164 63.1682 207.617 61.9965C208.071 60.8186 208.724 59.8215 209.563 58.9926C210.408 58.17 211.433 57.5281 212.645 57.0669C213.857 56.6119 215.219 56.3813 216.729 56.3813C218.009 56.3813 219.047 56.506 219.855 56.7428C220.657 56.9859 221.291 57.2351 221.757 57.4844L220.769 60.7189C220.321 60.4696 219.793 60.2453 219.184 60.0458C218.575 59.8527 217.897 59.7529 217.164 59.7529C216.387 59.7529 215.66 59.8651 214.982 60.0895C214.305 60.3138 213.714 60.6691 213.211 61.1552C212.708 61.6413 212.31 62.2645 212.018 63.0373C211.726 63.8038 211.583 64.7449 211.583 65.848C211.583 66.8763 211.726 67.7799 212.005 68.559C212.285 69.338 212.676 69.9799 213.18 70.4972C213.683 71.0144 214.268 71.3946 214.939 71.6501C215.61 71.9056 216.337 72.0303 217.133 72.0303L217.145 72.0365Z" fill="black"/>
<path d="M224.436 75.0962V56.7363H228.855V64.2523L234.666 56.7363H240.16L233.566 64.6948L240.744 75.0962H235.337L230.34 67.4307L228.861 69.0324V75.0962H224.442H224.436Z" fill="black"/>
<path d="M242.572 56.7367H254.779V60.1145H246.991V63.8725H254.027V67.2254H246.991V71.7126H254.866V75.0904H242.572V56.7305V56.7367Z" fill="black"/>
<path d="M270.44 56.7363V60.1765H265.443V75.0962H261.024V60.1765H256.139V56.7363H270.44Z" fill="black"/>
<path d="M278.813 56.3875C280.094 56.3875 281.194 56.5183 282.126 56.7801C283.058 57.0418 283.86 57.3597 284.537 57.7274L283.549 60.9619C282.791 60.5755 282.033 60.2701 281.268 60.0457C280.504 59.8214 279.77 59.7092 279.074 59.7092C278.185 59.7092 277.508 59.8775 277.042 60.2015C276.576 60.5318 276.346 60.9681 276.346 61.5103C276.346 62.1335 276.569 62.5822 277.017 62.8627C277.464 63.1431 278.148 63.4423 279.08 63.7539L280.796 64.3085C281.473 64.5391 282.101 64.8258 282.685 65.1686C283.269 65.5113 283.767 65.904 284.183 66.3464C284.6 66.7952 284.923 67.3 285.159 67.8608C285.389 68.4217 285.507 69.0387 285.507 69.6993C285.507 70.4783 285.364 71.2075 285.072 71.8993C284.78 72.5911 284.339 73.1956 283.748 73.7191C283.158 74.2426 282.412 74.6539 281.511 74.9593C280.609 75.2584 279.547 75.408 278.328 75.408C277.185 75.408 276.097 75.2833 275.059 75.0465C274.021 74.8035 273.07 74.4607 272.194 74.012L273.182 70.7775C274.015 71.1826 274.829 71.5067 275.625 71.7372C276.42 71.9678 277.253 72.0862 278.123 72.0862C279.149 72.0862 279.888 71.918 280.348 71.5752C280.802 71.2324 281.032 70.7713 281.032 70.1917C281.032 69.9985 280.995 69.8053 280.914 69.6059C280.833 69.4127 280.684 69.2195 280.466 69.02C280.243 68.8268 279.932 68.6336 279.534 68.4529C279.136 68.2659 278.627 68.079 278.011 67.8858L276.588 67.3934C275.911 67.1442 275.283 66.8575 274.699 66.5459C274.114 66.2343 273.617 65.8666 273.201 65.4365C272.784 65.0065 272.461 64.5142 272.225 63.9533C271.995 63.3924 271.877 62.7193 271.877 61.9403C271.877 61.1613 272.026 60.4072 272.324 59.7279C272.623 59.0486 273.07 58.4628 273.661 57.9642C274.251 57.4719 274.978 57.0792 275.842 56.7988C276.706 56.5183 277.694 56.375 278.819 56.375L278.813 56.3875Z" fill="black"/>
<path d="M149.734 36.4385C148.447 34.9802 146.023 33.5405 143.208 33.5405C140.392 33.5405 138.13 34.9116 136.812 36.2827C138.509 35.5784 140.678 35.136 143.084 35.136C145.663 35.136 147.994 35.6345 149.734 36.4385Z" fill="black"/>
<path d="M140.177 28.8665V28.879V32.4313C140.332 32.3192 140.506 32.2257 140.68 32.1322V28.3742C140.817 28.2807 140.985 28.1997 141.159 28.1187V31.9078C141.37 31.8206 141.594 31.7458 141.824 31.6835V27.9068C141.985 27.8694 142.134 27.8258 142.302 27.7946V31.5713C142.532 31.5339 142.768 31.5152 143.011 31.509V27.7385C143.098 27.7385 143.179 27.7198 143.272 27.7198C143.346 27.7198 143.415 27.7323 143.489 27.7385V31.5152C143.732 31.5277 143.968 31.5401 144.198 31.5838V27.8008C144.372 27.8258 144.521 27.8632 144.676 27.9006V31.7022C144.925 31.7707 145.155 31.8517 145.385 31.9515V28.1249C145.565 28.1997 145.727 28.287 145.864 28.3804V32.182C146.038 32.2818 146.212 32.3815 146.367 32.4937V28.879C146.957 28.4926 147.324 28.0127 147.324 27.483C147.324 26.2802 145.509 25.3018 143.266 25.3018C141.022 25.3018 139.207 26.2802 139.207 27.483C139.207 28.0127 139.574 28.4926 140.164 28.8728L140.177 28.8665Z" fill="black"/>
<path d="M124.57 58.6438V60.931C124.993 60.7502 125.447 60.5757 125.913 60.4075V58.6438C125.913 58.2698 125.614 57.9707 125.242 57.9707C124.869 57.9707 124.57 58.2698 124.57 58.6438Z" fill="black"/>
<path d="M140.251 41.6797C140.363 38.9002 141.109 36.9932 141.109 36.9932C138.082 40.558 137.821 44.0542 137.809 45.0638C138.573 44.9454 139.362 44.8519 140.17 44.7833C140.17 44.3097 140.183 43.3749 140.251 41.6735V41.6797Z" fill="black"/>
<path d="M135.583 42.7452C135.204 43.867 135.011 44.8454 134.918 45.6494C135.496 45.4998 136.093 45.3689 136.708 45.2505C136.988 43.5616 137.802 39.1368 138.734 37.9028C138.734 37.9028 136.646 39.6042 135.577 42.7514L135.583 42.7452Z" fill="black"/>
<path d="M132.078 46.553C132.669 46.3224 133.284 46.1043 133.943 45.9111C134.111 44.3468 134.633 40.7197 135.919 39.3735C135.919 39.3735 133.874 40.969 132.756 44.3032C132.401 45.3564 132.202 46.0606 132.078 46.5592V46.553Z" fill="black"/>
<path d="M129.467 47.8433C130.051 47.4818 130.697 47.1391 131.412 46.8274C131.623 45.5686 132.257 42.5771 133.749 40.2837C133.749 40.2837 130.94 43.2377 130.157 45.6683C129.827 46.6903 129.61 47.3759 129.467 47.8433Z" fill="black"/>
<path d="M128.522 48.4976C128.839 46.5594 129.597 43.7861 131.412 41.6235C131.412 41.6235 128.615 44.2473 127.664 47.5191C127.379 48.4976 127.186 49.3078 127.043 49.9871C127.416 49.4636 127.919 48.965 128.522 48.4976Z" fill="black"/>
<path d="M141.99 41.7918C141.853 42.8762 141.915 44.0042 141.94 44.7209C142.375 44.6835 142.816 44.6524 143.264 44.6524C143.711 44.6524 144.153 44.6773 144.588 44.7209C144.619 44.0105 144.662 42.8762 144.526 41.7918C144.345 40.4083 143.245 36.7251 143.245 36.7251C143.245 36.7251 142.164 40.4083 141.984 41.7918H141.99Z" fill="black"/>
<path d="M146.297 41.6799C146.366 43.3812 146.378 44.3161 146.378 44.7897C147.186 44.8582 147.975 44.9517 148.74 45.0701C148.734 44.0605 148.466 40.5643 145.439 36.9995C145.439 36.9995 146.185 38.9065 146.297 41.6861V41.6799Z" fill="black"/>
<path d="M151.631 45.6434C151.538 44.8457 151.351 43.8673 150.966 42.7392C149.897 39.5982 147.809 37.8906 147.809 37.8906C148.747 39.1246 149.555 43.5556 149.841 45.2383C150.456 45.3567 151.053 45.4876 151.631 45.6372V45.6434Z" fill="black"/>
<path d="M154.47 46.5533C154.346 46.0548 154.147 45.3568 153.792 44.2973C152.674 40.9631 150.629 39.3677 150.629 39.3677C151.915 40.7201 152.438 44.3409 152.605 45.9052C153.258 46.0984 153.879 46.3165 154.47 46.5471V46.5533Z" fill="black"/>
<path d="M157.081 47.8433C156.938 47.3759 156.721 46.6841 156.391 45.6683C155.608 43.2377 152.799 40.2837 152.799 40.2837C154.29 42.5771 154.924 45.5686 155.136 46.8274C155.851 47.1391 156.497 47.4818 157.081 47.8433Z" fill="black"/>
<path d="M159.506 49.9871C159.363 49.3078 159.17 48.4976 158.885 47.5191C157.934 44.2473 155.137 41.6235 155.137 41.6235C156.958 43.7923 157.71 46.5656 158.027 48.4976C158.63 48.965 159.127 49.4636 159.506 49.9871Z" fill="black"/>
<path d="M160.264 51.3082C157.498 47.7995 150.934 45.3315 143.277 45.3315C135.62 45.3315 129.057 47.7995 126.291 51.3082C130.057 48.6283 136.254 46.8709 143.277 46.8709C150.301 46.8709 156.497 48.6283 160.264 51.3082Z" fill="black"/>
<path d="M143.277 58.6187C143.277 58.6187 143.302 58.5626 143.302 58.5002C143.302 58.4379 143.29 58.3818 143.277 58.3818C143.265 58.3818 143.252 58.4379 143.252 58.5002C143.252 58.5626 143.265 58.6187 143.277 58.6187Z" fill="black"/>
<path d="M143.278 50.3297C153.477 50.3297 161.905 53.6141 163.385 57.8955C163.03 53.1155 154.18 49.2827 143.278 49.2827C132.377 49.2827 123.52 53.1155 123.172 57.8955C124.651 53.6141 133.079 50.3297 143.278 50.3297Z" fill="black"/>
<path d="M138.062 58.0329C138.062 58.0018 138.037 57.9706 138.037 57.9395V58.0329C138.037 58.0329 138.056 58.0329 138.062 58.0329Z" fill="black"/>
<path d="M148.517 57.9331C148.517 57.9643 148.498 57.9954 148.492 58.0266C148.498 58.0266 148.511 58.0266 148.517 58.0266V57.9331Z" fill="black"/>
<path d="M163.291 61.7161V59.6658H163.278C163.259 54.9293 154.31 51.0903 143.265 51.0903C132.221 51.0903 123.271 54.9293 123.252 59.6658V61.7161C123.488 61.5853 123.768 61.4731 124.016 61.3484V58.6125C124.016 57.9644 124.539 57.4409 125.185 57.4409H125.284C125.881 57.4409 126.353 57.8896 126.428 58.4692V56.8364C126.428 56.0885 127.031 55.484 127.777 55.484C128.473 55.484 129.026 56.02 129.101 56.693V55.6398C129.101 54.8545 129.734 54.2126 130.524 54.2126C131.257 54.2126 131.841 54.7798 131.916 55.4965V54.7985C131.916 53.9696 132.587 53.2965 133.414 53.2965C134.191 53.2965 134.806 53.8948 134.881 54.6551V54.25C134.881 53.3775 135.583 52.6733 136.453 52.6733C137.274 52.6733 137.92 53.309 138.001 54.1067V53.8948C138.001 52.9911 138.728 52.262 139.629 52.262H139.766C140.655 52.262 141.369 52.9787 141.388 53.8636C141.425 52.8852 142.215 52.0999 143.197 52.0999H143.352C144.328 52.0999 145.111 52.8727 145.161 53.8387C145.192 52.9662 145.9 52.262 146.777 52.262H146.913C147.815 52.262 148.542 52.9911 148.542 53.8948V54.1067C148.616 53.3027 149.269 52.6733 150.089 52.6733C150.96 52.6733 151.668 53.3775 151.668 54.25V54.6551C151.743 53.8948 152.358 53.2965 153.135 53.2965C153.961 53.2965 154.633 53.9696 154.633 54.7985V55.4965C154.707 54.7798 155.292 54.2126 156.025 54.2126C156.808 54.2126 157.448 54.8483 157.448 55.6398V56.693C157.523 56.0137 158.076 55.484 158.772 55.484C159.518 55.484 160.121 56.0885 160.121 56.8364V58.4692C160.195 57.8958 160.668 57.4409 161.264 57.4409H161.364C162.01 57.4409 162.532 57.9644 162.532 58.6125V61.3484C162.787 61.4731 163.067 61.5915 163.297 61.7161H163.291Z" fill="black"/>
<path d="M127.037 57.0418V60.0332C127.516 59.8837 128.013 59.7341 128.529 59.597V57.0418C128.529 56.6305 128.193 56.2939 127.783 56.2939C127.373 56.2939 127.037 56.6305 127.037 57.0418Z" fill="black"/>
<path d="M129.74 55.7081V59.2791C130.244 59.1607 130.772 59.0485 131.306 58.9426V55.7081C131.306 55.2719 130.958 54.9229 130.523 54.9229C130.088 54.9229 129.74 55.2719 129.74 55.7081Z" fill="black"/>
<path d="M132.594 55.0042V58.7061C133.135 58.6126 133.682 58.5253 134.241 58.4443V55.0042C134.241 54.5492 133.874 54.1753 133.415 54.1753C132.955 54.1753 132.588 54.543 132.588 55.0042H132.594Z" fill="black"/>
<path d="M135.588 54.3808V58.2697C136.16 58.2011 136.738 58.145 137.322 58.0952V54.3808C137.322 53.9009 136.931 53.5083 136.452 53.5083C135.974 53.5083 135.582 53.9009 135.582 54.3808H135.588Z" fill="black"/>
<path d="M138.766 53.926V57.9769C139.381 57.9333 140.002 57.9021 140.636 57.8772V53.926C140.636 53.4088 140.22 52.9912 139.704 52.9912C139.188 52.9912 138.772 53.4088 138.772 53.926H138.766Z" fill="black"/>
<path d="M144.327 53.9692C144.327 53.3897 143.861 52.916 143.277 52.916C142.693 52.916 142.227 53.3834 142.227 53.9692V57.8456C142.575 57.8456 142.916 57.8269 143.265 57.8269C143.613 57.8269 143.967 57.8394 144.321 57.8456V53.9692H144.327Z" fill="black"/>
<path d="M145.912 53.926V57.8772C146.546 57.9021 147.168 57.9395 147.783 57.9769V53.926C147.783 53.4088 147.366 52.9912 146.851 52.9912C146.335 52.9912 145.918 53.4088 145.918 53.926H145.912Z" fill="black"/>
<path d="M149.225 54.3807V58.095C149.809 58.1449 150.393 58.201 150.959 58.2695V54.3745C150.959 53.8946 150.567 53.502 150.089 53.502C149.61 53.502 149.219 53.8946 149.219 54.3745L149.225 54.3807Z" fill="black"/>
<path d="M152.309 55.0041V58.4442C152.875 58.5252 153.415 58.6125 153.956 58.7059V54.9978C153.956 54.5429 153.589 54.1689 153.129 54.1689C152.669 54.1689 152.303 54.5366 152.303 54.9978L152.309 55.0041Z" fill="black"/>
<path d="M155.242 55.7081V58.9426C155.777 59.0485 156.305 59.1607 156.808 59.2791V55.7081C156.808 55.2719 156.46 54.9229 156.025 54.9229C155.59 54.9229 155.242 55.2719 155.242 55.7081Z" fill="black"/>
<path d="M158.02 57.0418V59.597C158.536 59.7341 159.027 59.8837 159.505 60.0332V57.0418C159.505 56.6305 159.17 56.2939 158.76 56.2939C158.349 56.2939 158.014 56.6305 158.014 57.0418H158.02Z" fill="black"/>
<path d="M160.637 58.6434V60.4133C161.103 60.5816 161.557 60.7561 161.979 60.9368V58.6496C161.979 58.2757 161.681 57.9766 161.308 57.9766C160.935 57.9766 160.637 58.2757 160.637 58.6496V58.6434Z" fill="black"/>
<path d="M168.71 69.8927C168.71 64.6577 157.324 60.4136 143.271 60.4136C129.218 60.4136 117.832 64.6577 117.832 69.8927C117.832 70.3601 117.956 70.815 118.13 71.2637C118.13 71.2326 118.118 71.2077 118.118 71.1765C118.118 65.9415 129.38 61.6974 143.271 61.6974C157.162 61.6974 168.424 65.9415 168.424 71.1765C168.424 71.2077 168.412 71.2326 168.412 71.2637C168.586 70.815 168.71 70.3601 168.71 69.8927Z" fill="black"/>
<path d="M167.996 72.1364C167.971 72.0242 167.94 71.912 167.903 71.7936C167.866 71.6876 167.816 71.5817 167.772 71.4758C167.462 70.7404 166.939 70.0299 166.187 69.3568C164.702 68.0294 162.409 66.8702 159.55 65.9416C159.55 65.9416 159.543 65.9416 159.537 65.9416C159.121 65.8045 158.692 65.6799 158.257 65.5552C157.436 65.3246 156.585 65.1065 155.69 64.9133C154.012 64.5518 152.222 64.2589 150.332 64.047C149.568 63.9598 148.785 63.8912 147.989 63.8351C147.455 63.7978 146.92 63.7666 146.373 63.7417C145.652 63.7105 144.925 63.6918 144.185 63.6793C143.887 63.6793 143.595 63.6606 143.297 63.6606C142.998 63.6606 142.712 63.6731 142.414 63.6793C141.675 63.6918 140.947 63.7105 140.226 63.7417C139.686 63.7666 139.145 63.7978 138.61 63.8351C137.815 63.8912 137.026 63.966 136.261 64.047C135.751 64.1031 135.254 64.1717 134.757 64.2402C128.281 65.1252 123.054 66.9886 120.4 69.3506C119.971 69.7308 119.629 70.1296 119.337 70.5409C119.119 70.8463 118.945 71.1517 118.809 71.4695C118.759 71.5755 118.715 71.6814 118.672 71.7936C118.635 71.9058 118.604 72.018 118.579 72.1301C118.517 72.3919 118.473 72.6474 118.467 72.9154V75.4082H119.337V71.5817C119.629 71.1579 119.965 70.7466 120.4 70.3415V75.4082H123.197V68.3971C123.57 68.1914 123.955 67.9858 124.371 67.7926V75.4082H127.056V66.7019C127.473 66.5586 127.902 66.4215 128.337 66.2844V75.4082H130.91V65.5864C131.363 65.4804 131.83 65.3807 132.302 65.2872V75.4082H134.763V64.8572C135.26 64.7824 135.758 64.7076 136.267 64.6516V75.4145H138.617V64.421C139.151 64.3773 139.686 64.3462 140.233 64.315V75.4145H142.427V64.2527C142.681 64.2527 142.93 64.234 143.185 64.234C143.527 64.234 143.862 64.2527 144.198 64.2527V75.4082H146.392V64.3275C146.933 64.3586 147.473 64.3836 148.008 64.4272V75.4082H150.357V64.6702C150.867 64.7326 151.364 64.8136 151.861 64.8884V75.4082H154.323V65.3309C154.795 65.4306 155.261 65.5303 155.715 65.6362V75.4082H158.288V66.3342C158.729 66.4713 159.152 66.6085 159.568 66.758V75.4082H162.253V67.8424C162.663 68.0356 163.049 68.2413 163.428 68.4469V75.4082H166.225V70.3914C166.654 70.7902 166.995 71.2015 167.288 71.6191V75.4082H168.158V72.9154H168.145C168.145 72.6536 168.102 72.3919 168.033 72.1301L167.996 72.1364Z" fill="black"/>
<path d="M143.234 32.1572C141.568 32.1572 140.126 32.849 139.318 33.8773C140.356 33.3476 141.686 33.0173 143.159 33.0173C144.738 33.0173 146.161 33.3912 147.23 33.9895C146.441 32.8989 144.962 32.1572 143.234 32.1572Z" fill="black"/>
<path d="M144.433 22.9026C144.433 22.8714 144.439 22.8403 144.445 22.8091C144.458 22.7343 144.445 22.6658 144.482 22.591C144.619 22.3479 144.737 22.1049 144.862 21.8618C144.88 21.8244 145.042 21.463 145.079 21.3196C145.123 21.1638 145.166 21.008 145.203 20.8522C145.203 20.8335 145.203 20.8024 145.185 20.7899C145.135 20.7463 145.079 20.7151 145.005 20.7213C144.942 20.7213 144.868 20.7338 144.824 20.7026C144.657 20.5905 144.625 20.3973 144.619 20.3536C144.619 20.3287 144.594 19.8987 144.588 19.8738C144.576 19.7928 144.569 19.7055 144.557 19.6245C144.551 19.5809 144.501 19.02 144.501 19.02C144.489 18.9701 144.414 18.7208 144.395 18.646L144.19 18.1911C144.153 18.1038 143.948 17.5928 143.923 17.5554C143.892 17.5056 143.849 17.4806 143.799 17.4619C143.762 17.4245 143.712 17.356 143.712 17.356C143.681 17.3186 143.65 17.2625 143.612 17.2563C143.556 17.2438 143.488 17.2687 143.426 17.2812C143.413 17.2687 143.401 17.2438 143.382 17.2189C143.438 17.2313 143.457 17.2126 143.469 17.1566C143.476 17.1067 143.488 17.0568 143.556 17.0444C143.569 17.0444 143.587 17.0132 143.594 16.9945C143.606 16.9322 143.612 16.8699 143.625 16.8076C143.625 16.7889 143.65 16.7639 143.668 16.7577C143.718 16.739 143.73 16.7141 143.712 16.6642C143.712 16.6642 143.668 16.552 143.65 16.4959C143.65 16.4772 143.668 16.4586 143.693 16.4399C143.693 16.4399 143.693 16.4212 143.693 16.4149C143.65 16.3651 143.693 16.3214 143.706 16.2778C143.724 16.228 143.706 16.1033 143.662 16.0784C143.619 16.0535 143.606 16.0223 143.625 15.9849C143.587 15.96 143.544 15.9226 143.519 15.9288C143.432 15.9537 143.42 15.8478 143.358 15.8478L143.246 15.8603C143.277 15.8166 143.376 15.8416 143.333 15.7419C143.345 15.7356 143.364 15.7294 143.376 15.7169C143.376 15.6858 143.376 15.6546 143.37 15.6234C143.345 15.6234 143.463 15.5923 143.519 15.53C143.532 15.5175 143.563 15.5175 143.581 15.5175C143.606 15.5175 143.637 15.5237 143.662 15.53C143.712 15.53 143.724 15.505 143.706 15.4614C143.687 15.4178 143.662 15.3866 143.687 15.3305C143.693 15.3181 143.668 15.2807 143.65 15.2682C143.625 15.2495 143.488 15.2121 143.494 15.1747C143.457 15.1997 143.426 15.2308 143.382 15.2495C143.339 15.2682 143.289 15.2744 143.239 15.2807C143.239 15.2371 143.246 15.1747 143.239 15.1186C143.239 15.0875 143.202 15.0563 143.184 15.0252C143.109 15.1373 142.935 15.1872 142.842 15.0127C142.767 15.0999 142.755 15.1997 142.786 15.3181C142.686 15.2869 142.618 15.3742 142.525 15.3368C142.407 15.2869 142.407 15.4302 142.369 15.4801C142.357 15.4988 142.351 15.5362 142.369 15.5549C142.388 15.5798 142.413 15.5674 142.438 15.5736C142.45 15.5736 142.376 15.6297 142.332 15.6608C142.326 15.6608 142.313 15.6733 142.301 15.6671C142.226 15.6359 142.177 15.6982 142.133 15.7294C142.059 15.7855 141.972 15.7917 141.897 15.8353C141.897 15.854 141.897 15.879 141.897 15.9039C141.897 15.9351 141.872 15.9662 141.878 15.9974C141.897 16.0784 141.785 16.1906 141.773 16.203C141.71 16.2529 141.673 16.4897 141.611 16.4835C141.605 16.4835 141.599 16.4835 141.592 16.4959C141.543 16.5458 141.487 16.6019 141.468 16.6704C141.449 16.7203 141.425 16.7826 141.468 16.8076C141.524 16.8387 141.518 16.8886 141.536 16.9322C141.549 16.9634 141.574 17.0008 141.599 17.007C141.623 17.0132 141.661 16.9945 141.686 16.9758C141.797 16.9197 141.86 16.7826 142.009 16.7889C142.009 16.7889 142.164 16.739 142.208 16.6642C142.251 16.5894 142.307 16.5146 142.363 16.4523C142.394 16.4149 142.425 16.3713 142.487 16.3838C142.487 16.471 142.487 16.552 142.5 16.6393C142.5 16.6829 142.518 16.7203 142.525 16.7639C142.525 16.7889 142.525 16.82 142.512 16.8325C142.481 16.8636 142.444 16.8823 142.407 16.9073C142.394 16.9135 142.369 16.9197 142.357 16.9135C142.282 16.8886 142.226 16.9135 142.177 16.9634C142.164 16.9821 142.139 16.9945 142.121 17.0008C142.034 17.0319 141.984 17.0942 141.947 17.169C141.897 17.2625 141.847 17.3622 141.816 17.4682C141.717 17.8047 141.599 18.1412 141.586 18.4965C141.586 18.6336 141.599 19.7367 141.586 19.8987C141.568 20.1231 141.623 20.31 141.816 20.4471C141.847 20.4721 141.984 20.765 141.978 20.8211C141.978 20.8647 141.978 20.9021 141.965 20.9457C141.959 21.0205 141.841 21.3196 141.829 21.3819C141.816 21.4256 141.816 21.4754 141.81 21.5253C141.791 21.6562 142.021 21.8805 142.04 21.893C142.108 21.9678 142.183 22.0426 142.257 22.1173C142.27 22.1298 142.276 22.1547 142.276 22.1734C142.276 22.2482 142.071 22.8901 142.034 22.9587C141.512 23.4012 141.07 24.0618 141.07 24.7972C141.07 24.8283 141.077 24.8533 141.077 24.8782C141.692 24.5728 142.45 24.3796 143.283 24.3796C144.116 24.3796 144.874 24.5666 145.489 24.8782C145.489 24.847 145.496 24.8221 145.496 24.7972C145.496 24.0306 144.992 23.3575 144.439 22.9151L144.433 22.9026Z" fill="black"/>
</g>
<defs>
<clipPath id="clip0_4036_1126">
<rect width="285" height="72" fill="white" transform="translate(0.5 15)"/>
</clipPath>
</defs>
</svg>
