<svg width="17" height="18" viewBox="0 0 17 18" fill="none" xmlns="http://www.w3.org/2000/svg">
<path d="M8.5 13.25C8.74083 13.25 8.94285 13.1684 9.10605 13.0052C9.26925 12.842 9.35057 12.6403 9.35 12.4C9.35 12.1592 9.2684 11.9574 9.1052 11.7948C8.942 11.6322 8.74027 11.5506 8.5 11.55C8.25917 11.55 8.05743 11.6316 7.8948 11.7948C7.73217 11.958 7.65057 12.1597 7.65 12.4C7.65 12.6408 7.7316 12.8428 7.8948 13.006C8.058 13.1692 8.25973 13.2506 8.5 13.25ZM7.65 9.85H9.35V4.75H7.65V9.85ZM8.5 17.5C7.32417 17.5 6.21917 17.2767 5.185 16.8302C4.15083 16.3837 3.25125 15.7782 2.48625 15.0137C1.72125 14.2487 1.11577 13.3492 0.6698 12.315C0.223833 11.2808 0.000566667 10.1758 0 9C0 7.82417 0.223267 6.71917 0.6698 5.685C1.11633 4.65083 1.72182 3.75125 2.48625 2.98625C3.25125 2.22125 4.15083 1.61577 5.185 1.1698C6.21917 0.723833 7.32417 0.500567 8.5 0.5C9.67583 0.5 10.7808 0.723267 11.815 1.1698C12.8492 1.61633 13.7487 2.22182 14.5137 2.98625C15.2787 3.75125 15.8845 4.65083 16.331 5.685C16.7776 6.71917 17.0006 7.82417 17 9C17 10.1758 16.7767 11.2808 16.3302 12.315C15.8837 13.3492 15.2782 14.2487 14.5137 15.0137C13.7487 15.7787 12.8492 16.3845 11.815 16.831C10.7808 17.2776 9.67583 17.5006 8.5 17.5ZM8.5 15.8C10.3983 15.8 12.0062 15.1412 13.3237 13.8237C14.6412 12.5062 15.3 10.8983 15.3 9C15.3 7.10167 14.6412 5.49375 13.3237 4.17625C12.0062 2.85875 10.3983 2.2 8.5 2.2C6.60167 2.2 4.99375 2.85875 3.67625 4.17625C2.35875 5.49375 1.7 7.10167 1.7 9C1.7 10.8983 2.35875 12.5062 3.67625 13.8237C4.99375 15.1412 6.60167 15.8 8.5 15.8Z" fill="#9F2532"/>
</svg>
