<svg width="31" height="30" viewBox="0 0 31 30" fill="none" xmlns="http://www.w3.org/2000/svg">
<path fill-rule="evenodd" clip-rule="evenodd" d="M16 26C22.9036 26 28.5 20.4036 28.5 13.5C28.5 6.59644 22.9036 1 16 1C9.09644 1 3.5 6.59644 3.5 13.5C3.5 20.4036 9.09644 26 16 26ZM18.44 6H12.56C11.4832 6 10.4505 6.42775 9.68915 7.18915C8.92775 7.95054 8.5 8.98322 8.5 10.06V15.94C8.5 18.18 10.32 20 12.56 20H18.44C19.5168 20 20.5495 19.5723 21.3109 18.8109C22.0723 18.0495 22.5 17.0168 22.5 15.94V10.06C22.5 7.82 20.68 6 18.44 6ZM10.6381 8.13809C11.1107 7.6655 11.7517 7.4 12.42 7.4H18.58C19.973 7.4 21.1 8.527 21.1 9.92V16.08C21.1 16.7483 20.8345 17.3893 20.3619 17.8619C19.8893 18.3345 19.2483 18.6 18.58 18.6H12.42C11.027 18.6 9.9 17.473 9.9 16.08V9.92C9.9 9.25165 10.1655 8.61068 10.6381 8.13809ZM19.7937 8.70628C19.6296 8.54219 19.4071 8.45 19.175 8.45C18.9429 8.45 18.7204 8.54219 18.5563 8.70628C18.3922 8.87038 18.3 9.09294 18.3 9.325C18.3 9.55706 18.3922 9.77962 18.5563 9.94372C18.7204 10.1078 18.9429 10.2 19.175 10.2C19.4071 10.2 19.6296 10.1078 19.7937 9.94372C19.9578 9.77962 20.05 9.55706 20.05 9.325C20.05 9.09294 19.9578 8.87038 19.7937 8.70628ZM17.9749 10.5251C17.3185 9.86875 16.4283 9.5 15.5 9.5C14.5717 9.5 13.6815 9.86875 13.0251 10.5251C12.3687 11.1815 12 12.0717 12 13C12 13.9283 12.3687 14.8185 13.0251 15.4749C13.6815 16.1313 14.5717 16.5 15.5 16.5C16.4283 16.5 17.3185 16.1313 17.9749 15.4749C18.6313 14.8185 19 13.9283 19 13C19 12.0717 18.6313 11.1815 17.9749 10.5251ZM14.0151 11.5151C14.4089 11.1212 14.943 10.9 15.5 10.9C16.057 10.9 16.5911 11.1212 16.9849 11.5151C17.3788 11.9089 17.6 12.443 17.6 13C17.6 13.557 17.3788 14.0911 16.9849 14.4849C16.5911 14.8788 16.057 15.1 15.5 15.1C14.943 15.1 14.4089 14.8788 14.0151 14.4849C13.6212 14.0911 13.4 13.557 13.4 13C13.4 12.443 13.6212 11.9089 14.0151 11.5151Z" fill="black"/>
</svg>
