<svg width="30" height="30" viewBox="0 0 30 30" fill="none" xmlns="http://www.w3.org/2000/svg">
<path fill-rule="evenodd" clip-rule="evenodd" d="M15.5 27C22.4036 27 28 21.4036 28 14.5C28 7.59644 22.4036 2 15.5 2C8.59644 2 3 7.59644 3 14.5C3 21.4036 8.59644 27 15.5 27ZM17.94 8H12.06C10.9832 8 9.95054 8.42775 9.18915 9.18915C8.42775 9.95054 8 10.9832 8 12.06V17.94C8 20.18 9.82 22 12.06 22H17.94C19.0168 22 20.0495 21.5723 20.8109 20.8109C21.5723 20.0495 22 19.0168 22 17.94V12.06C22 9.82 20.18 8 17.94 8ZM10.1381 10.1381C10.6107 9.6655 11.2517 9.4 11.92 9.4H18.08C19.473 9.4 20.6 10.527 20.6 11.92V18.08C20.6 18.7483 20.3345 19.3893 19.8619 19.8619C19.3893 20.3345 18.7483 20.6 18.08 20.6H11.92C10.527 20.6 9.4 19.473 9.4 18.08V11.92C9.4 11.2517 9.6655 10.6107 10.1381 10.1381ZM19.2937 10.7063C19.1296 10.5422 18.9071 10.45 18.675 10.45C18.4429 10.45 18.2204 10.5422 18.0563 10.7063C17.8922 10.8704 17.8 11.0929 17.8 11.325C17.8 11.5571 17.8922 11.7796 18.0563 11.9437C18.2204 12.1078 18.4429 12.2 18.675 12.2C18.9071 12.2 19.1296 12.1078 19.2937 11.9437C19.4578 11.7796 19.55 11.5571 19.55 11.325C19.55 11.0929 19.4578 10.8704 19.2937 10.7063ZM17.4749 12.5251C16.8185 11.8687 15.9283 11.5 15 11.5C14.0717 11.5 13.1815 11.8687 12.5251 12.5251C11.8687 13.1815 11.5 14.0717 11.5 15C11.5 15.9283 11.8687 16.8185 12.5251 17.4749C13.1815 18.1313 14.0717 18.5 15 18.5C15.9283 18.5 16.8185 18.1313 17.4749 17.4749C18.1313 16.8185 18.5 15.9283 18.5 15C18.5 14.0717 18.1313 13.1815 17.4749 12.5251ZM13.5151 13.5151C13.9089 13.1212 14.443 12.9 15 12.9C15.557 12.9 16.0911 13.1212 16.4849 13.5151C16.8788 13.9089 17.1 14.443 17.1 15C17.1 15.557 16.8788 16.0911 16.4849 16.4849C16.0911 16.8788 15.557 17.1 15 17.1C14.443 17.1 13.9089 16.8788 13.5151 16.4849C13.1212 16.0911 12.9 15.557 12.9 15C12.9 14.443 13.1212 13.9089 13.5151 13.5151Z" fill="white"/>
</svg>
