<svg width="44" height="50" viewBox="0 0 44 50" fill="none" xmlns="http://www.w3.org/2000/svg">
<path d="M12.5699 26.4288C11.2733 27.0152 9.85889 28.1879 9.26953 28.7742C9.97676 24.5525 12.5699 21.8553 13.6308 21.0344C13.2771 21.5035 12.9235 22.4417 12.8057 22.6762C13.0414 22.4417 13.9844 21.1517 14.5737 20.6826C13.2771 22.7935 12.6878 25.3734 12.5699 26.3116V26.4288Z" fill="black"/>
<path d="M14.8096 25.6084L13.6309 25.9602C14.2202 21.1522 16.4598 19.9795 16.4598 19.9795C15.5168 20.9176 15.0453 24.0839 14.8096 25.6084Z" fill="black"/>
<path d="M17.0503 25.0219L15.6358 25.3737C15.518 21.6211 17.5218 19.393 18.5826 18.8066C17.8754 19.6275 17.286 23.2629 17.0503 25.0219Z" fill="black"/>
<path d="M24.947 16.5783C22.4717 14.3502 19.8785 15.8747 18.9355 16.8128C21.5287 16.1092 21.0572 16.2265 22.2359 16.1092C23.1789 16.1092 24.4755 16.461 24.947 16.5783Z" fill="black"/>
<path d="M21.7642 15.1712C21.057 15.1712 19.9962 15.7575 19.6425 15.9921V13.2949C19.2889 12.5913 18.5817 11.6531 19.2889 10.9495C19.8783 10.3631 21.6464 10.2459 22 10.3631C22.5893 10.3631 24.1216 10.4804 24.8289 11.3013C25.5361 12.1222 25.1825 12.7085 24.8289 12.9431V12.7085H24.5931V16.1093H24.2395V12.2394H23.8859V15.7575L23.4144 15.4057V11.7704H22.9429V15.4057H22.1178V11.6531H21.7642V15.4057V15.1712Z" fill="black"/>
<path d="M23.4148 9.66008C22.2361 9.191 21.0574 9.66008 20.5859 9.77735C20.5859 9.42554 21.1753 8.72193 21.411 8.37012C21.0574 7.90104 21.411 6.96288 21.7646 6.61107C21.1753 5.43838 21.411 5.08657 21.5289 4.9693C21.5289 4.03114 21.7646 3.56206 22.1183 3.09299C22.4719 2.62391 21.5289 1.68575 22.354 1.80302C23.1791 1.80302 23.297 2.85845 23.1791 2.85845C23.0612 2.85845 22.8255 2.38937 22.8255 2.62391C22.8255 2.85845 23.0612 2.97572 23.1791 3.09299C23.297 4.03114 23.1791 4.73476 23.0612 4.9693C22.7076 5.32111 22.8255 5.90746 22.9434 6.14199V6.4938C23.297 6.72834 23.4148 7.08015 23.5327 7.19742C23.6506 7.6665 23.5327 7.78377 23.4148 7.78377V8.48739C23.7685 8.48739 23.7685 9.07374 23.7685 9.42554L23.4148 9.66008Z" fill="black"/>
<path d="M21.9998 29.5957V30.7684C20.939 29.713 19.996 30.1821 19.6424 30.6511C19.053 30.1821 18.6994 30.6511 18.6994 31.0029V35.1074H18.5815V31.0029C17.6386 30.182 16.9313 30.6511 16.6956 31.0029C15.9884 30.4166 15.6348 31.0029 15.5169 31.3547C14.8097 30.7684 14.1024 31.2375 13.8667 31.472V35.6937H13.7488V31.2375C13.2773 31.2375 13.0416 31.2375 12.688 31.5893C11.8629 31.3547 11.3914 32.0584 11.2735 32.5274V36.1628H11.1557V32.0584C10.2127 32.2929 9.62334 32.8793 9.3876 33.1138V36.9837H9.15185V33.1138L8.5625 33.4656C7.7374 33.8174 7.7374 36.2801 7.7374 37.4528H7.50166V34.2865C6.9123 34.2865 6.79443 36.7491 6.79443 37.9218H6.67656V35.2246C6.20508 35.2246 6.20508 37.2182 6.32295 38.1564H6.20508V35.6937C7.97314 31.0029 17.4028 29.713 22.1177 29.5957H21.9998Z" fill="black"/>
<path d="M21.292 34.9903H20.1133V31.1204C20.5848 30.6514 21.0562 30.8859 21.292 31.1204V34.9903Z" fill="black"/>
<path d="M18.111 35.1065H16.8145C16.8145 35.2238 16.9323 31.5885 16.9323 31.5885C17.4038 31.0021 17.8753 31.3539 17.9932 31.5885V35.1065H18.111Z" fill="black"/>
<path d="M15.4001 31.8238V35.3419H14.1035C14.1035 35.4592 14.2214 31.8238 14.2214 31.8238C14.575 31.2375 15.1644 31.5893 15.2822 31.8238H15.4001Z" fill="black"/>
<path d="M12.5706 35.8105L11.5098 36.045V32.996C11.7455 32.0579 12.3349 32.0579 12.5706 32.2924V35.8105Z" fill="black"/>
<path d="M10.3303 36.397L9.62305 36.6315V33.6998C9.85879 32.8789 10.2124 33.2307 10.3303 33.4653V36.397Z" fill="black"/>
<path d="M8.44541 37.1008H8.0918C8.0918 34.7554 8.44541 34.0518 8.56328 34.0518V37.1008H8.44541Z" fill="black"/>
<path d="M22.7061 39.6807C14.3373 39.5635 3.7289 40.7362 2.31445 46.1306V48.8278H3.13955V44.7233L3.7289 44.137V48.8278H5.14336V43.3161L5.73271 42.847V48.8278H7.38291V42.1434L8.09013 41.7916V48.8278H10.5654V41.4398L11.3905 41.088V48.8278H13.8658V40.6189H14.8088V48.8278H17.5198V40.3844H18.6985V48.8278H21.5274V40.1498H22.7061V39.5635V39.6807Z" fill="black"/>
<path d="M22.7062 38.0391V37.2182C9.97616 36.8664 2.66816 40.0327 1.96094 43.668C1.96094 44.2544 1.96094 44.958 2.19668 45.5443C1.96094 40.9708 11.037 37.57 22.7062 38.1563V38.0391Z" fill="black"/>
<path d="M22.707 25.1393C14.9275 24.7875 10.0948 27.9538 8.5625 29.9474C11.9808 26.8984 17.8743 26.1947 22.707 26.312V25.1393Z" fill="black"/>
<path d="M22.7064 23.3804H22.235L21.9992 18.4551C21.4099 20.2141 20.5848 21.3868 20.2312 21.7386V23.3804H19.7597C19.6418 21.8559 19.9954 19.5105 20.2312 18.4551C19.8775 19.5105 18.581 21.2695 17.9916 21.9732L17.7559 24.9049C17.7559 24.6704 20.4669 24.5531 22.7064 24.5531V23.4977V23.3804Z" fill="black"/>
<path d="M29.4258 20.6826C29.8973 21.1517 30.9581 22.4417 31.1938 22.6762C31.076 22.3244 30.7224 21.5035 30.3688 21.0344C31.5475 21.8553 34.0227 24.4352 34.73 28.7742C34.1406 28.1879 32.7262 27.0152 31.4296 26.4288C31.4296 25.3734 30.7224 22.9107 29.4258 20.7999V20.6826Z" fill="black"/>
<path d="M27.6582 19.9795C27.6582 19.9795 29.8978 21.1522 30.4871 25.9602L29.3084 25.6084C29.1905 24.0839 28.719 20.9176 27.6582 19.9795Z" fill="black"/>
<path d="M25.5352 18.6895C26.596 19.2758 28.5998 21.5039 28.4819 25.2565L27.0675 24.9047C26.8317 23.1457 26.3603 19.3931 25.5352 18.6895Z" fill="black"/>
<path d="M38.0298 35.6937V38.1564H37.9119C37.9119 37.2182 37.9119 35.2246 37.5583 35.2246V37.9218H37.4404C37.4404 36.7491 37.4404 34.2865 36.6153 34.2865V37.4528H36.4974C36.4974 36.2801 36.4974 33.8174 35.6723 33.4656C35.6723 33.4656 35.2009 33.2311 35.083 33.1138C34.8473 32.8793 34.2579 32.2929 33.1971 32.0584V36.1628H33.0792V32.5274C33.0792 32.1756 32.6077 31.472 31.6647 31.5893C31.3111 31.2375 31.0754 31.2375 30.6039 31.2375V35.6937H30.486V31.472C30.2503 31.1202 29.5431 30.6511 28.8358 31.3547C28.8358 31.0029 28.3643 30.4166 27.6571 31.0029C27.4214 30.6511 26.7142 30.182 25.7712 31.0029V35.1074H25.6533V31.0029C25.6533 30.6511 25.2997 30.1821 24.7103 30.6511C24.3567 30.2993 23.4138 29.713 22.1172 30.7684V29.5957C26.9499 29.5957 36.3796 31.0029 38.1476 35.6937H38.0298Z" fill="black"/>
<path d="M22.707 31.1195C22.9428 30.8849 23.4143 30.6504 23.8857 31.1195V34.9894H22.707V31.1195Z" fill="black"/>
<path d="M25.8906 31.5885C26.0085 31.3539 26.48 31.0021 26.9515 31.5885V35.2238C27.0693 35.2238 25.8906 35.1065 25.8906 35.1065V31.5885Z" fill="black"/>
<path d="M29.7796 31.8238V35.4592C29.8975 35.4592 28.7188 35.3419 28.7188 35.3419V31.8238C28.9545 31.5893 29.426 31.2375 29.7796 31.8238Z" fill="black"/>
<path d="M31.4297 32.293C31.6654 32.1758 32.1369 32.0585 32.2548 32.9966V36.0457C32.3727 36.0457 31.4297 35.8111 31.4297 35.8111V32.293Z" fill="black"/>
<path d="M33.6699 33.4653C33.7878 33.2307 34.1414 32.8789 34.3771 33.6998V36.6315L33.6699 36.397V33.4653Z" fill="black"/>
<path d="M35.5547 34.0518C35.6726 34.0518 36.0262 34.7554 36.0262 37.218H35.6726C35.6726 37.1008 35.5547 34.0518 35.5547 34.0518Z" fill="black"/>
<path d="M21.293 39.6807C29.6618 39.5635 40.2702 40.7362 41.6847 46.1306V48.8278H40.8596V44.7233L40.2702 44.137V48.8278H38.8557V43.3161L38.2664 42.847V48.8278H36.6162V42.1434L35.909 41.7916V48.8278H33.4337V41.4398L32.6086 41.088V48.8278H30.1333V40.6189H29.1903V48.8278H26.4793V40.3844H25.3006V48.8278H22.4717V40.1498H21.293V39.5635V39.6807Z" fill="black"/>
<path d="M21.293 38.0391V37.2182C34.023 36.8664 41.331 40.0327 42.0383 43.668C42.0383 44.2544 42.0383 44.958 41.8025 45.5443C42.0383 40.9708 32.9622 37.57 21.293 38.1563V38.0391Z" fill="black"/>
<path d="M32.6076 30.0648C29.6608 29.0094 25.5353 28.1885 21.8813 28.1885C18.2273 28.1885 14.3376 29.0094 11.2729 30.0648C7.97256 31.2375 6.20449 32.762 5.96875 34.9901C6.20449 33.7001 8.56191 30.8857 15.6342 29.5957C17.1665 29.3612 19.6418 29.1266 21.8813 29.0094C24.2388 29.0094 26.5962 29.3612 28.1285 29.5957C35.2008 30.7684 37.4403 33.7001 37.7939 34.9901C37.4403 32.762 35.7901 31.2375 32.4897 30.0648H32.6076Z" fill="black"/>
<path d="M21.293 25.1393C29.0725 24.7875 33.9052 27.9538 35.4375 29.9474C32.0192 26.8984 26.1257 26.1947 21.293 26.312V25.1393Z" fill="black"/>
<path d="M21.293 23.3804H21.7645L22.0002 18.4551C22.5895 20.2141 23.4146 21.3868 23.7683 21.7386V23.3804H24.2397C24.3576 21.8559 24.004 19.5105 23.7683 18.4551C24.1219 19.5105 25.4185 21.2695 26.0078 21.9732L26.2436 24.9049C26.2436 24.6704 23.5325 24.5531 21.293 24.5531V23.4977V23.3804Z" fill="black"/>
<path d="M27.0691 18.5719C26.244 17.751 24.476 16.3438 22.1186 16.3438C19.7611 16.3438 17.9931 17.6337 17.168 18.5719C20.3505 17.0474 24.2402 17.2819 27.0691 18.5719Z" fill="black"/>
</svg>
