<svg width="59" height="59" viewBox="0 0 59 59" fill="none" xmlns="http://www.w3.org/2000/svg">
<rect x="5" y="4" width="50" height="50" rx="25" fill="#001942"/>
<path d="M18.0622 19.6049C18.0622 19.2708 18.3417 19 18.6866 19H41.3755C41.7204 19 42 19.2708 42 19.6049V34.9291C42 35.2632 41.7204 35.534 41.3755 35.534H18.6866C18.3417 35.534 18.0622 35.2632 18.0622 34.9291V19.6049Z" fill="#F6F2EB"/>
<path d="M18.057 34.5698C18.0602 34.3552 18.1805 34.1583 18.3732 34.0524L21.5943 32.2821C22.1459 31.9789 22.7588 32.573 22.4453 33.1071L19.1674 38.6929C18.8482 39.2369 17.9907 39.0109 18.0001 38.3853L18.057 34.5698Z" fill="#F6F2EB"/>
</svg>
