<svg width="31" height="30" viewBox="0 0 31 30" fill="none" xmlns="http://www.w3.org/2000/svg">
<path d="M15.5 2.5C13.0277 2.5 10.611 3.23311 8.55538 4.60663C6.49976 5.98015 4.89761 7.93238 3.95151 10.2165C3.00542 12.5005 2.75787 15.0139 3.24019 17.4386C3.7225 19.8634 4.91301 22.0907 6.66117 23.8388C8.40933 25.587 10.6366 26.7775 13.0614 27.2598C15.4861 27.7421 17.9995 27.4946 20.2835 26.5485C22.5676 25.6024 24.5199 24.0002 25.8934 21.9446C27.2669 19.889 28 17.4723 28 15C27.9967 11.6858 26.6787 8.50831 24.3352 6.16482C21.9917 3.82133 18.8142 2.50331 15.5 2.5ZM22.9238 12.1413V12.9488C22.9238 13.0106 22.9114 13.0717 22.8874 13.1287C22.8634 13.1856 22.8282 13.2372 22.7839 13.2803C22.7396 13.3234 22.6872 13.3572 22.6296 13.3797C22.572 13.4022 22.5105 13.4129 22.4488 13.4113C21.129 13.318 19.8663 12.8361 18.82 12.0263V17.9362C18.8197 18.5903 18.6891 19.2378 18.4359 19.8409C18.1826 20.444 17.8118 20.9906 17.345 21.4487C16.8744 21.9189 16.3147 22.2905 15.6987 22.5416C15.0826 22.7927 14.4227 22.9184 13.7575 22.9113C12.4198 22.9093 11.1359 22.3844 10.18 21.4487C9.57174 20.8355 9.13362 20.0745 8.90875 19.2405C8.68388 18.4065 8.68 17.5284 8.89751 16.6925C9.09626 15.89 9.49751 15.1525 10.0638 14.5512C10.486 14.0351 11.0183 13.6199 11.6217 13.3359C12.2251 13.0519 12.8844 12.9064 13.5513 12.91H14.5763V15.0387C14.5767 15.1006 14.564 15.1618 14.5389 15.2183C14.5138 15.2748 14.477 15.3253 14.4309 15.3665C14.3848 15.4077 14.3304 15.4385 14.2714 15.457C14.2124 15.4755 14.1501 15.4812 14.0888 15.4737C13.4936 15.295 12.8523 15.3543 12.3001 15.6391C11.7478 15.924 11.3277 16.4121 11.1283 17.0007C10.9289 17.5892 10.9659 18.2322 11.2313 18.7941C11.4968 19.3559 11.97 19.7928 12.5513 20.0125C12.8888 20.2063 13.2663 20.32 13.6538 20.3463C13.9538 20.3588 14.2538 20.3212 14.5388 20.2312C15.0145 20.0707 15.4284 19.7658 15.7226 19.3589C16.0168 18.9519 16.1767 18.4634 16.18 17.9613V7.1925C16.18 7.07337 16.2272 6.9591 16.3114 6.87474C16.3955 6.79039 16.5096 6.74283 16.6288 6.7425H18.3975C18.5124 6.74264 18.6229 6.78675 18.7064 6.86577C18.7898 6.9448 18.8399 7.05275 18.8463 7.1675C18.9107 7.71904 19.0859 8.25188 19.3613 8.73408C19.6366 9.21629 20.0065 9.63794 20.4488 9.97375C21.0464 10.4224 21.7562 10.6974 22.5 10.7687C22.6114 10.7783 22.7156 10.8278 22.7933 10.9083C22.871 10.9887 22.9169 11.0946 22.9225 11.2063L22.9238 12.1413Z" fill="black"/>
</svg>
