<svg width="55" height="36" viewBox="0 0 55 36" fill="none" xmlns="http://www.w3.org/2000/svg">
<g clip-path="url(#clip0_1115_9684)">
<path d="M6.51468 19.3403L2.03125 23.8445V-0.027832H6.51468V19.3403Z" fill="#001942"/>
<path d="M11.6963 16.1527L7.21289 19.2502V-0.027832H11.6963V16.1527Z" fill="#001942"/>
<path d="M17.2139 14.1847L12.7305 15.9171V-0.027832H17.2139V14.1847Z" fill="#001942"/>
<path d="M48.3203 19.3403L52.8037 23.8445V-0.027832H48.3203V19.3403Z" fill="#001942"/>
<path d="M43.1367 16.1527L47.6202 19.2502V-0.027832H43.1367V16.1527Z" fill="#001942"/>
<path d="M37.6211 14.1847L42.1115 15.9171V-0.027832H37.6211V14.1847Z" fill="#001942"/>
<path d="M27.6287 12.2583C21.3782 12.2583 16.2988 6.74929 16.2988 -0.027832H18.9667C18.9667 5.26636 22.8542 9.57656 27.6287 9.57656C32.4031 9.57656 36.2906 5.27329 36.2906 -0.027832H38.9585C38.9585 6.74236 33.8791 12.2583 27.6287 12.2583Z" fill="#001942"/>
<path d="M27.6285 7.89267C23.5817 7.89267 20.2832 4.3378 20.2832 -0.027832H22.9511C22.9511 2.8618 25.0507 5.21786 27.6285 5.21786C30.2063 5.21786 32.306 2.86873 32.306 -0.027832H34.9739C34.9739 4.3378 31.6823 7.89267 27.6285 7.89267Z" fill="#001942"/>
<path d="M55 30.7881H0V35.3616H55V30.7881Z" fill="#001942"/>
<path d="M52.8031 27.4756H2.11328V29.7623H52.8031V27.4756Z" fill="#001942"/>
<path d="M45.4581 25.4663H9.45898V26.6097H45.4581V25.4663Z" fill="#001942"/>
</g>
<defs>
<clipPath id="clip0_1115_9684">
<rect width="55" height="35.3547" fill="white"/>
</clipPath>
</defs>
</svg>
