<svg width="55" height="36" viewBox="0 0 55 36" fill="none" xmlns="http://www.w3.org/2000/svg">
<g clip-path="url(#clip0_1115_9708)">
<mask id="mask0_1115_9708" style="mask-type:luminance" maskUnits="userSpaceOnUse" x="0" y="1" width="56" height="34">
<path d="M27.5035 23.3356C39.4223 23.3356 49.7751 31.6373 55.0069 34.7279V1.27881C49.782 4.36247 39.4293 11.8741 27.5035 11.8741C15.5777 11.8741 5.2249 4.3694 0 1.27881V34.7209C5.2249 31.6373 15.5777 23.3287 27.5035 23.3287V23.3356Z" fill="white"/>
</mask>
<g mask="url(#mask0_1115_9708)">
<path d="M18.9936 -32.9531H10.1445V68.9601H18.9936V-32.9531Z" fill="#001942"/>
<path d="M4.60124 -32.9531H0V68.9601H4.60124V-32.9531Z" fill="#001942"/>
<path d="M44.4532 -32.9531H40.3301V68.9601H44.4532V-32.9531Z" fill="#001942"/>
<path d="M8.61972 -32.9531H6.26367V68.9601H8.61972V-32.9531Z" fill="#001942"/>
<path d="M38.1061 -32.9531H35.75V68.9601H38.1061V-32.9531Z" fill="#001942"/>
<path d="M65.5612 -32.9531H46.3594V68.9601H65.5612V-32.9531Z" fill="#001942"/>
<path d="M26.3111 -32.9531H23.9551V68.9601H26.3111V-32.9531Z" fill="#001942"/>
</g>
<path d="M32.0971 29.2329H22.8947L20.9336 27.2718V7.59876L22.8947 5.6377H32.0971L34.0582 7.59876V27.2649L32.0971 29.226V29.2329Z" fill="#001942"/>
</g>
<defs>
<clipPath id="clip0_1115_9708">
<rect width="55" height="35.3547" fill="white" transform="translate(0 0.322754)"/>
</clipPath>
</defs>
</svg>
