<svg width="55" height="36" viewBox="0 0 55 36" fill="none" xmlns="http://www.w3.org/2000/svg">
<g clip-path="url(#clip0_1115_9721)">
<path d="M38.3965 4.4805V31.5197H36.9898V4.4805H38.3965ZM42.5542 0.322754H32.832V35.6774H42.5542V0.322754Z" fill="#001942"/>
<path d="M30.0544 10.1143H24.9473V16.4548H30.0544V10.1143Z" fill="#001942"/>
<path d="M30.0544 20.2798H24.9473V26.6203H30.0544V20.2798Z" fill="#001942"/>
<path d="M50.8418 4.4805V31.5197H49.4351V4.4805H50.8418ZM54.9995 0.322754H45.2773V35.6774H54.9995V0.322754Z" fill="#001942"/>
<path d="M5.56444 4.4805V31.5197H4.15774V4.4805H5.56444ZM9.72218 0.322754H0V35.6774H9.72218V0.322754Z" fill="#001942"/>
<path d="M18.0098 4.4805V31.5197H16.6031V4.4805H18.0098ZM22.1675 0.322754H12.4453V35.6774H22.1675V0.322754Z" fill="#001942"/>
</g>
<defs>
<clipPath id="clip0_1115_9721">
<rect width="55" height="35.3547" fill="white" transform="translate(0 0.322754)"/>
</clipPath>
</defs>
</svg>
