<svg width="55" height="36" viewBox="0 0 55 36" fill="none" xmlns="http://www.w3.org/2000/svg">
<g clip-path="url(#clip0_1115_9740)">
<path d="M5.26563 5.38818L5.26562 18H13.498V5.38818H5.26563Z" fill="black"/>
<path d="M15.5215 5.38818V18H18.8061V5.38818H15.5215Z" fill="black"/>
<path d="M21.0098 5.38818V18H24.2944V5.38818H21.0098Z" fill="black"/>
<path d="M33.7188 5.38818V18H35.167V5.38818H33.7188Z" fill="black"/>
<path d="M36.1367 5.38818V18H37.585V5.38818H36.1367Z" fill="black"/>
<path d="M26.0605 5.38818V18H32.0893V5.38818H26.0605Z" fill="black"/>
<path d="M39.6367 5.38818V18H45.6654V5.38818H39.6367Z" fill="black"/>
<path d="M46.7109 5.38818V18H49.7253V5.38818H46.7109Z" fill="black"/>
<path d="M27.5041 22.2065L28.7515 24.7566L31.6272 25.1239L29.5206 27.0642L30.0473 29.836L27.4972 28.4917L24.9471 29.836L25.4738 27.0642L23.3672 25.1239L26.243 24.7566L27.4903 22.2065H27.5041Z" fill="black"/>
<path d="M9.39672 22.2065L10.644 24.7566L13.5198 25.1239L11.4132 27.0642L11.9399 29.836L9.38979 28.4917L6.83971 29.836L7.36635 27.0642L5.25977 25.1239L8.13554 24.7566L9.38286 22.2065H9.39672Z" fill="black"/>
<path d="M45.6037 22.2065L46.8511 24.7566L49.7268 25.1239L47.6203 27.0642L48.1469 29.836L45.5968 28.4917L43.0467 29.836L43.5734 27.0642L41.4668 25.1239L44.3426 24.7566L45.5899 22.2065H45.6037Z" fill="black"/>
<path d="M52.2282 3.09458V32.9056H2.77183V3.09458H52.2282ZM55 0.322754H0V35.6774H55V0.322754Z" fill="black"/>
</g>
<defs>
<clipPath id="clip0_1115_9740">
<rect width="55" height="35.3547" fill="white" transform="translate(0 0.322754)"/>
</clipPath>
</defs>
</svg>
