<svg width="55" height="36" viewBox="0 0 55 36" fill="none" xmlns="http://www.w3.org/2000/svg">
<g clip-path="url(#clip0_1115_10305)">
<path d="M16.6031 16.9606H16.4923L13.5056 7.7373H9.04297L13.8521 20.8203H19.2502L24.0524 7.7373H19.5898L16.6031 16.9606Z" fill="#001942"/>
<path d="M30.8991 7.7373H26.9492V20.8203H30.8991V7.7373Z" fill="#001942"/>
<path d="M45.2776 9.92705C44.8272 9.23409 44.1966 8.69359 43.3858 8.31246C42.5751 7.93133 41.6326 7.7373 40.5516 7.7373H34.2734V20.8203H38.2233V16.9398H40.413C41.5218 16.9398 42.4919 16.7527 43.3235 16.3854C44.155 16.0181 44.7995 15.4846 45.2637 14.7985C45.728 14.1125 45.9567 13.3017 45.9567 12.3663C45.9567 11.4308 45.728 10.6269 45.2845 9.93398L45.2776 9.92705ZM41.5633 13.3225C41.3832 13.5928 41.1337 13.8076 40.8011 13.9531C40.4685 14.0987 40.0735 14.1749 39.6092 14.1749H38.2164V10.5715H39.6092C40.0735 10.5715 40.4685 10.6408 40.8011 10.7863C41.1268 10.9318 41.3832 11.1328 41.5633 11.3961C41.7435 11.6594 41.8267 11.9851 41.8267 12.3593C41.8267 12.7335 41.7366 13.0523 41.5633 13.3225Z" fill="#001942"/>
<path d="M50.8423 4.45266V31.5196H4.15774V4.45266H50.8423ZM55 0.294922H0V35.6773H55V0.294922Z" fill="#001942"/>
<path d="M48.9717 25.7891H6.18164V29.6488H48.9717V25.7891Z" fill="#001942"/>
<path d="M48.9717 23.9111H6.18164V25.0129H48.9717V23.9111Z" fill="#001942"/>
</g>
<defs>
<clipPath id="clip0_1115_10305">
<rect width="55" height="35.3547" fill="white" transform="translate(0 0.322754)"/>
</clipPath>
</defs>
</svg>
